<?xml version="1.0" encoding="utf-8"?>
<!-- Generator: Adobe Illustrator 24.2.1, SVG Export Plug-In . SVG Version: 6.00 Build 0)  -->
<svg version="1.1" id="Capa_1" xmlns="http://www.w3.org/2000/svg" xmlns:xlink="http://www.w3.org/1999/xlink" x="0px" y="0px"
	 viewBox="0 0 512 512" style="enable-background:new 0 0 512 512;" xml:space="preserve">
<style type="text/css">
	.st0{fill:#08237E;}
	.st1{fill:#B1FFFF;}
</style>
<path class="st0" d="M294.4,512h-76.8L198,448.3c-29.6-9-56.8-24.7-79.4-45.9l-65.1,14.9l-38.4-66.5l45.4-48.9
	c-7-30.2-7-61.6,0-91.8l-45.4-48.9l38.4-66.5l65.1,14.9c22.6-21.2,49.8-36.9,79.4-45.9L217.6,0h76.8L314,63.8
	c29.6,9,56.8,24.7,79.4,45.9l65.1-14.9l38.4,66.5l-45.4,48.9c7,30.2,7,61.6,0,91.8l45.4,48.9l-38.4,66.5l-65.1-14.9
	c-22.6,21.2-49.8,36.9-79.4,45.9L294.4,512z M229.4,496h53.2l18.7-60.8c32.1-8.9,58.1-21.8,87.2-50.4l62,14.2l26.6-46l-43.3-46.6
	c3.5-13.7,6.9-28.9,6.9-50.4c0-20-2.9-34.7-6.9-50.4l43.3-46.6l-26.6-46l-62,14.2c-24.3-23.8-48.6-39.7-87.2-50.4L282.6,16h-53.2
	l-18.7,60.8c-32.2,8.9-58.1,21.8-87.2,50.4l-62-14.2l-26.6,46l43.3,46.6c-3.5,13.7-6.9,28.9-6.9,50.4c0,20,2.9,34.7,6.9,50.4
	L34.9,353l26.6,46l62-14.2c24.3,23.8,48.6,39.7,87.2,50.4L229.4,496z M256,360.4c-57.7,0-104.4-46.7-104.4-104.4
	S198.4,151.6,256,151.6S360.4,198.3,360.4,256C360.3,313.6,313.6,360.3,256,360.4z M256,167.6c-48.8,0-88.4,39.6-88.4,88.4
	s39.6,88.4,88.4,88.4s88.4-39.6,88.4-88.4l0,0C344.3,207.2,304.8,167.7,256,167.6L256,167.6z"/>
<path class="st1" d="M245.7,474l-17.5-56.8c-51.8-14.4-64.7-24-97.9-56.6L72.4,374L62,356l40.4-43.5c-4.7-18.3-9.2-32.9-9.2-56.6
	s4.6-38.5,9.2-56.6L62,156l10.4-18l57.9,13.3c38.8-38,53.7-44.3,97.9-56.6L245.7,38h20.7l17.5,56.8c51.8,14.4,64.7,24,97.9,56.6
	l57.9-13.3l10.4,18l-40.4,43.5c4.7,18.3,9.2,32.9,9.2,56.6s-4.6,38.5-9.2,56.6L450,356l-10.4,18l-57.9-13.3
	c-38.8,38-53.7,44.3-97.9,56.6L266.4,474H245.7z M256,129.6c-69.8,0-126.4,56.6-126.4,126.4S186.2,382.4,256,382.4
	S382.4,325.8,382.4,256C382.3,186.2,325.8,129.7,256,129.6z"/>
</svg>
